<svg width="26" height="18" viewBox="0 0 26 18" fill="none" xmlns="http://www.w3.org/2000/svg">
<path d="M13.0739 4.3102C12.4337 4.3102 11.8223 4.43706 11.2396 4.69078C10.6569 4.9445 10.1563 5.28006 9.73769 5.69748C9.31913 6.11489 8.98264 6.61414 8.72822 7.19524C8.4738 7.77634 8.34659 8.38609 8.34659 9.02448C8.34659 9.66288 8.4738 10.2767 8.72822 10.866C8.98264 11.4553 9.31913 11.9586 9.73769 12.376C10.1563 12.7935 10.6569 13.1249 11.2396 13.3705C11.8223 13.616 12.4337 13.7388 13.0739 13.7388C13.9438 13.7388 14.7399 13.5301 15.4621 13.1127C16.1843 12.6952 16.7547 12.1264 17.1733 11.4062C17.5919 10.6859 17.8011 9.89205 17.8011 9.02448C17.8011 7.73133 17.3415 6.62233 16.4223 5.69748C15.5032 4.77262 14.387 4.3102 13.0739 4.3102ZM13.0739 12.1673C12.5158 12.1673 11.9905 12.0241 11.4981 11.7377C11.0057 11.4512 10.6158 11.0665 10.3286 10.5836C10.0414 10.1007 9.89773 9.57285 9.89773 8.99993C9.89773 8.57434 9.9798 8.1692 10.1439 7.78453C10.3081 7.39986 10.5338 7.06429 10.821 6.77783C11.1083 6.49137 11.4448 6.2663 11.8305 6.10261C12.2162 5.93892 12.6225 5.85707 13.0492 5.85707C13.9192 5.85707 14.6619 6.16399 15.2775 6.77783C15.893 7.39167 16.2008 8.13237 16.2008 8.99993C16.2008 9.86749 15.8971 10.6123 15.2898 11.2343C14.6825 11.8563 13.9438 12.1673 13.0739 12.1673ZM25.6061 8.82806C25.6061 8.81169 25.602 8.79123 25.5938 8.76667C25.5855 8.74212 25.5814 8.72166 25.5814 8.70529C25.5814 8.68892 25.5773 8.67664 25.5691 8.66846L25.5568 8.65618V8.63163L25.5322 8.58252C24.416 6.01258 22.7254 3.99509 20.4602 2.53006C18.1951 1.06503 15.7247 0.33252 13.0492 0.33252C11.2929 0.33252 9.60227 0.651716 7.97727 1.29011C6.35227 1.9285 4.87911 2.87381 3.55777 4.12605C2.23643 5.37828 1.19823 6.86377 0.443184 8.58252V8.6439L0.418562 8.68073V8.7544L0.393941 8.8035C0.377527 8.90172 0.36932 8.97538 0.36932 9.02448C0.36932 9.05722 0.373423 9.08996 0.381631 9.1227C0.389838 9.15544 0.393941 9.18818 0.393941 9.22091C0.393941 9.23728 0.402148 9.26184 0.418562 9.29457V9.34368L0.430873 9.38051L0.443184 9.39279V9.46645C1.57576 12.0364 3.27873 14.0457 5.55209 15.4944C7.82544 16.943 10.3081 17.6673 13 17.6673C14.7563 17.6673 16.4429 17.3522 18.0597 16.722C19.6765 16.0918 21.1414 15.1547 22.4545 13.9106C23.7677 12.6666 24.7936 11.1852 25.5322 9.46645C25.5486 9.46645 25.5568 9.45826 25.5568 9.4419V9.40507L25.5691 9.38051L25.5814 9.36823V9.29457L25.6061 9.24547C25.6225 9.14725 25.6307 9.07359 25.6307 9.02448C25.6307 8.99175 25.6266 8.95901 25.6184 8.92627C25.6102 8.89353 25.6061 8.86079 25.6061 8.82806ZM13 16.0959C10.6692 16.0959 8.51073 15.4862 6.52462 14.2667C4.53851 13.0472 3.02841 11.2998 1.99432 9.02448C3.02841 6.74919 4.54672 4.99361 6.54924 3.75774C8.55177 2.52188 10.7184 1.90395 13.0492 1.90395C14.5593 1.90395 16.0079 2.16585 17.3949 2.68966C18.7819 3.21347 20.0581 4.01965 21.2235 5.10819C22.3889 6.19673 23.3163 7.50216 24.0057 9.02448C22.9716 11.2998 21.4615 13.0472 19.4754 14.2667C17.4893 15.4862 15.3308 16.0959 13 16.0959Z" fill="white"/>
</svg>
